<?xml version="1.0" encoding="UTF-8"?>
<svg id="Capa_1" data-name="Capa 1" xmlns="http://www.w3.org/2000/svg" viewBox="0 0 48.55 52.02">
  <defs>
    <style>
      .cls-1 {
        fill: #fbfbfe;
      }

      .cls-2 {
        fill: none;
        stroke: #fbfbfe;
        stroke-miterlimit: 10;
        stroke-width: 1.5px;
      }

      .cls-3 {
        fill: #1f1f1d;
      }

      .cls-4 {
        fill: #21211f;
      }

      .cls-5 {
        fill: #555553;
      }
    </style>
  </defs>
  <path class="cls-2" d="m24.47,43.53h0c-10.51,0-19.03-8.52-19.03-19.03h0C5.44,13.99,13.96,5.47,24.47,5.47h0c10.51,0,19.03,8.52,19.03,19.03h0c0,10.51-8.52,19.03-19.03,19.03Z"/>
  <g>
    <path class="cls-1" d="m35.98,19.19v11.48s-.08.09-.09.13c-.09.59-.39,1.09-.81,1.49-.58.53-1.26.83-2.09.82-5.54-.01-11.07,0-16.61,0-.26,0-.53,0-.79-.03-.58-.07-1.07-.31-1.51-.7-.48-.43-.77-.96-.93-1.58-.01-.12-.04-.24-.04-.37,0-3.52,0-7.03,0-10.55,0-.43.02-.85.04-1.28.05-.13.1-.25.14-.38.17-.49.46-.89.86-1.22.13-.11.2-.14.38-.28,0,0,.16-.07.22-.1.53-.27,1.1-.27,1.67-.28,5.48,0,10.97,0,16.45,0,.26,0,.54,0,.79.07,1.13.29,1.9.97,2.22,2.11.03.1.07.2.1.29v.36Zm-19.47-.97s-.02,0-.03,0c.01.01.02.02.03.03,0,.01,0,.01.02.02.05.04.1.08.15.12.75.59,1.5,1.18,2.26,1.76.76.59,1.52,1.17,2.29,1.75.57.44,1.14.87,1.71,1.32.48.37.96.75,1.45,1.13.11.09.2.07.31-.02.49-.38.98-.76,1.47-1.13.61-.47,1.21-.93,1.82-1.4.7-.54,1.39-1.09,2.08-1.63.82-.64,1.65-1.26,2.48-1.9.02-.02.04-.03.06-.05-.05,0-.1-.01-.15-.02-.04,0-.09,0-.13,0-5.19,0-10.39,0-15.58,0-.05,0-.07,0-.12,0-.02,0-.08,0-.1,0Zm17.46,1.37s-.09.05-.13.08c-.1.06-.2.12-.29.19-.46.35-.91.7-1.36,1.05-.39.3-.77.59-1.16.89-.6.47-1.21.94-1.81,1.41-.27.21-.52.43-.79.64-.3.23-.62.43-.91.66-.81.62-1.62,1.26-2.43,1.88-.32.24-.67.31-1.02.06-.32-.23-.63-.47-.94-.71-.29-.23-.58-.46-.86-.7-.03-.02-.06-.03-.09-.05-2.37-1.82-4.73-3.63-7.1-5.45-.03-.03-.06-.06-.1-.09-.02,0-.03.02-.05.03.02.08.04.16.05.24,0,.02,0,.04,0,.07.02,3.53.04,7.06.05,10.59,0,.21.07.36.2.51.27.31.6.35.99.35,5.59,0,11.19,0,16.78,0,.47,0,.86-.21,1.02-.71.02-.01.04-.03.06-.04-.02-.02-.04-.03-.06-.05-.02-.04-.03-.09-.05-.13.01-.01.02-.02.04-.03.01,0,.03,0,.04-.01.02-.03.03-.06.05-.09,0-2.5,0-4.99,0-7.49,0-.99,0-1.98,0-2.96.02-.08.03-.15.06-.28-.1.07-.15.11-.2.14Z"/>
    <path class="cls-3" d="m22.27,25.04s-.06-.03-.09-.05c.03.02.06.03.09.05Z"/>
    <path class="cls-5" d="m34.06,30.26s.03-.06.05-.09c-.02.03-.03.06-.05.09Z"/>
    <path class="cls-4" d="m34.03,30.53v-.09s.04.03.06.05c-.02.01-.04.03-.06.04Z"/>
    <path class="cls-4" d="m33.98,30.31s.02-.02.04-.03c-.01.01-.02.02-.04.03Z"/>
  </g>
</svg>