<?xml version="1.0" encoding="UTF-8"?>
<svg id="Capa_1" data-name="Capa 1" xmlns="http://www.w3.org/2000/svg" viewBox="0 0 48.55 52.02">
  <defs>
    <style>
      .cls-1 {
        fill: #fbfbfe;
      }

      .cls-2 {
        fill: none;
        stroke: #fbfbfe;
        stroke-miterlimit: 10;
        stroke-width: 1.5px;
      }
    </style>
  </defs>
  <path class="cls-2" d="m23.15,45.53h0c-10.51,0-19.03-8.52-19.03-19.03h0C4.12,15.99,12.64,7.47,23.15,7.47h0c10.51,0,19.03,8.52,19.03,19.03h0c0,10.51-8.52,19.03-19.03,19.03Z"/>
  <path class="cls-1" d="m23.15,15.37c-6.14,0-11.13,4.98-11.13,11.13s4.98,11.13,11.13,11.13,11.13-4.98,11.13-11.13-4.98-11.13-11.13-11.13Zm5.12,16.08c-.22.33-.61.44-.95.22-2.61-1.61-5.9-1.95-9.79-1.06-.39.11-.72-.17-.83-.5-.11-.39.17-.72.5-.83,4.23-.95,7.9-.56,10.79,1.22.39.17.45.61.28.95Zm1.33-3.06c-.28.39-.78.56-1.17.28-3-1.84-7.57-2.39-11.07-1.28-.45.11-.95-.11-1.06-.56-.11-.45.11-.95.56-1.06,4.06-1.22,9.07-.61,12.52,1.5.33.17.5.72.22,1.11Zm.11-3.12c-3.56-2.11-9.51-2.34-12.91-1.28-.56.17-1.11-.17-1.28-.67-.17-.56.17-1.11.67-1.28,3.95-1.17,10.46-.95,14.58,1.5.5.28.67.95.39,1.45-.28.39-.95.56-1.45.28Z"/>
</svg>